<mxfile host="app.diagrams.net" modified="2023-12-28T22:13:49.325Z" agent="Mozilla/5.0 (Windows NT 10.0; Win64; x64) AppleWebKit/537.36 (KHTML, like Gecko) Chrome/120.0.0.0 Safari/537.36" etag="RJQEIC3Q9U52nDQKwJLa" version="22.1.15" type="device">
  <diagram name="Page-1" id="PsBjRXYxm8xsxbt7aGv4">
    <mxGraphModel dx="1235" dy="624" grid="1" gridSize="10" guides="1" tooltips="1" connect="1" arrows="1" fold="1" page="1" pageScale="1" pageWidth="850" pageHeight="1100" math="0" shadow="0">
      <root>
        <mxCell id="0" />
        <mxCell id="1" parent="0" />
        <mxCell id="oefuFwdinoPiPtyLTkeN-74" value="" style="group" vertex="1" connectable="0" parent="1">
          <mxGeometry x="200" y="120" width="750" height="776" as="geometry" />
        </mxCell>
        <mxCell id="oefuFwdinoPiPtyLTkeN-107" style="edgeStyle=orthogonalEdgeStyle;rounded=0;orthogonalLoop=1;jettySize=auto;html=1;entryX=-0.006;entryY=0.701;entryDx=0;entryDy=0;entryPerimeter=0;fillColor=#d5e8d4;strokeColor=#82b366;endArrow=none;endFill=0;" edge="1" parent="oefuFwdinoPiPtyLTkeN-74" source="oefuFwdinoPiPtyLTkeN-40" target="oefuFwdinoPiPtyLTkeN-71">
          <mxGeometry relative="1" as="geometry">
            <mxPoint x="60" y="450" as="targetPoint" />
            <Array as="points">
              <mxPoint x="60" y="315" />
              <mxPoint x="61" y="315" />
            </Array>
          </mxGeometry>
        </mxCell>
        <mxCell id="oefuFwdinoPiPtyLTkeN-40" value="Player" style="verticalAlign=top;align=left;spacingTop=8;spacingLeft=2;spacingRight=12;shape=cube;size=10;direction=south;fontStyle=4;html=1;whiteSpace=wrap;" vertex="1" parent="oefuFwdinoPiPtyLTkeN-74">
          <mxGeometry width="220" height="180" as="geometry" />
        </mxCell>
        <mxCell id="oefuFwdinoPiPtyLTkeN-38" value="&lt;p style=&quot;margin:0px;margin-top:6px;text-align:center;&quot;&gt;&lt;b&gt;TransformComponent&lt;/b&gt;&lt;/p&gt;&lt;hr&gt;&lt;p style=&quot;margin:0px;margin-left:8px;&quot;&gt;+ pos: Vec3&lt;br&gt;&lt;/p&gt;" style="align=left;overflow=fill;html=1;dropTarget=0;whiteSpace=wrap;" vertex="1" parent="oefuFwdinoPiPtyLTkeN-74">
          <mxGeometry x="10" y="40" width="190" height="60" as="geometry" />
        </mxCell>
        <mxCell id="oefuFwdinoPiPtyLTkeN-39" value="" style="shape=component;jettyWidth=8;jettyHeight=4;" vertex="1" parent="oefuFwdinoPiPtyLTkeN-38">
          <mxGeometry x="1" width="20" height="20" relative="1" as="geometry">
            <mxPoint x="-24" y="4" as="offset" />
          </mxGeometry>
        </mxCell>
        <mxCell id="oefuFwdinoPiPtyLTkeN-41" value="&lt;p style=&quot;margin:0px;margin-top:6px;text-align:center;&quot;&gt;&lt;b&gt;RigidBodyComponent&lt;/b&gt;&lt;/p&gt;&lt;hr&gt;&lt;p style=&quot;margin:0px;margin-left:8px;&quot;&gt;+ velocity: float&lt;br&gt;&lt;/p&gt;" style="align=left;overflow=fill;html=1;dropTarget=0;whiteSpace=wrap;" vertex="1" parent="oefuFwdinoPiPtyLTkeN-74">
          <mxGeometry x="10" y="110" width="190" height="60" as="geometry" />
        </mxCell>
        <mxCell id="oefuFwdinoPiPtyLTkeN-42" value="" style="shape=component;jettyWidth=8;jettyHeight=4;" vertex="1" parent="oefuFwdinoPiPtyLTkeN-41">
          <mxGeometry x="1" width="20" height="20" relative="1" as="geometry">
            <mxPoint x="-24" y="4" as="offset" />
          </mxGeometry>
        </mxCell>
        <mxCell id="oefuFwdinoPiPtyLTkeN-73" value="" style="group" vertex="1" connectable="0" parent="oefuFwdinoPiPtyLTkeN-74">
          <mxGeometry x="530" width="220" height="370" as="geometry" />
        </mxCell>
        <mxCell id="oefuFwdinoPiPtyLTkeN-101" style="edgeStyle=orthogonalEdgeStyle;rounded=0;orthogonalLoop=1;jettySize=auto;html=1;endArrow=none;endFill=0;fillColor=#f8cecc;strokeColor=#b85450;" edge="1" parent="oefuFwdinoPiPtyLTkeN-73" source="oefuFwdinoPiPtyLTkeN-62">
          <mxGeometry relative="1" as="geometry">
            <mxPoint x="110" y="410" as="targetPoint" />
          </mxGeometry>
        </mxCell>
        <mxCell id="oefuFwdinoPiPtyLTkeN-110" style="edgeStyle=orthogonalEdgeStyle;rounded=0;orthogonalLoop=1;jettySize=auto;html=1;fillColor=#dae8fc;strokeColor=#6c8ebf;endArrow=none;endFill=0;" edge="1" parent="oefuFwdinoPiPtyLTkeN-73" source="oefuFwdinoPiPtyLTkeN-62">
          <mxGeometry relative="1" as="geometry">
            <mxPoint x="-220" y="430" as="targetPoint" />
            <Array as="points">
              <mxPoint x="60" y="390" />
              <mxPoint x="-220" y="390" />
            </Array>
          </mxGeometry>
        </mxCell>
        <mxCell id="oefuFwdinoPiPtyLTkeN-62" value="Sphere" style="verticalAlign=top;align=left;spacingTop=8;spacingLeft=2;spacingRight=12;shape=cube;size=10;direction=south;fontStyle=4;html=1;whiteSpace=wrap;" vertex="1" parent="oefuFwdinoPiPtyLTkeN-73">
          <mxGeometry width="220" height="370" as="geometry" />
        </mxCell>
        <mxCell id="oefuFwdinoPiPtyLTkeN-63" value="&lt;p style=&quot;margin:0px;margin-top:6px;text-align:center;&quot;&gt;&lt;b&gt;TransformComponent&lt;/b&gt;&lt;/p&gt;&lt;hr&gt;&lt;p style=&quot;margin:0px;margin-left:8px;&quot;&gt;+ pos: Vec3&lt;br&gt;&lt;/p&gt;" style="align=left;overflow=fill;html=1;dropTarget=0;whiteSpace=wrap;" vertex="1" parent="oefuFwdinoPiPtyLTkeN-73">
          <mxGeometry x="10" y="40" width="190" height="60" as="geometry" />
        </mxCell>
        <mxCell id="oefuFwdinoPiPtyLTkeN-64" value="" style="shape=component;jettyWidth=8;jettyHeight=4;" vertex="1" parent="oefuFwdinoPiPtyLTkeN-63">
          <mxGeometry x="1" width="20" height="20" relative="1" as="geometry">
            <mxPoint x="-24" y="4" as="offset" />
          </mxGeometry>
        </mxCell>
        <mxCell id="oefuFwdinoPiPtyLTkeN-65" value="&lt;p style=&quot;margin:0px;margin-top:6px;text-align:center;&quot;&gt;&lt;b&gt;RendererComponent&lt;/b&gt;&lt;/p&gt;&lt;p style=&quot;margin:0px;margin-top:6px;text-align:center;&quot;&gt;&lt;b&gt;&amp;lt;PipelineType::PBR&amp;gt;&lt;/b&gt;&lt;/p&gt;&lt;hr&gt;&lt;p style=&quot;margin:0px;margin-left:8px;&quot;&gt;+ material: Material&lt;br&gt;&lt;/p&gt;" style="align=left;overflow=fill;html=1;dropTarget=0;whiteSpace=wrap;" vertex="1" parent="oefuFwdinoPiPtyLTkeN-73">
          <mxGeometry x="10" y="110" width="190" height="80" as="geometry" />
        </mxCell>
        <mxCell id="oefuFwdinoPiPtyLTkeN-66" value="" style="shape=component;jettyWidth=8;jettyHeight=4;" vertex="1" parent="oefuFwdinoPiPtyLTkeN-65">
          <mxGeometry x="1" width="20" height="20" relative="1" as="geometry">
            <mxPoint x="-24" y="4" as="offset" />
          </mxGeometry>
        </mxCell>
        <mxCell id="oefuFwdinoPiPtyLTkeN-67" value="&lt;p style=&quot;margin:0px;margin-top:6px;text-align:center;&quot;&gt;&lt;b&gt;MeshComponent&lt;/b&gt;&lt;/p&gt;&lt;hr&gt;&lt;p style=&quot;margin:0px;margin-left:8px;&quot;&gt;+ firstIndex: size_t&lt;br&gt;&lt;/p&gt;&lt;p style=&quot;margin:0px;margin-left:8px;&quot;&gt;+ indexCount: size_t&lt;/p&gt;" style="align=left;overflow=fill;html=1;dropTarget=0;whiteSpace=wrap;" vertex="1" parent="oefuFwdinoPiPtyLTkeN-73">
          <mxGeometry x="10" y="200" width="190" height="70" as="geometry" />
        </mxCell>
        <mxCell id="oefuFwdinoPiPtyLTkeN-68" value="" style="shape=component;jettyWidth=8;jettyHeight=4;" vertex="1" parent="oefuFwdinoPiPtyLTkeN-67">
          <mxGeometry x="1" width="20" height="20" relative="1" as="geometry">
            <mxPoint x="-24" y="4" as="offset" />
          </mxGeometry>
        </mxCell>
        <mxCell id="oefuFwdinoPiPtyLTkeN-69" value="&lt;p style=&quot;margin:0px;margin-top:6px;text-align:center;&quot;&gt;&lt;b&gt;EchoComponent&lt;/b&gt;&lt;/p&gt;&lt;hr&gt;&lt;p style=&quot;margin:0px;margin-left:8px;&quot;&gt;+ startPos: Vec3&lt;br&gt;&lt;/p&gt;&lt;p style=&quot;margin:0px;margin-left:8px;&quot;&gt;+ endPos: Vec3&lt;/p&gt;&lt;p style=&quot;margin:0px;margin-left:8px;&quot;&gt;+ startTime: time_point&lt;/p&gt;" style="align=left;overflow=fill;html=1;dropTarget=0;whiteSpace=wrap;" vertex="1" parent="oefuFwdinoPiPtyLTkeN-73">
          <mxGeometry x="10" y="280" width="190" height="80" as="geometry" />
        </mxCell>
        <mxCell id="oefuFwdinoPiPtyLTkeN-70" value="" style="shape=component;jettyWidth=8;jettyHeight=4;" vertex="1" parent="oefuFwdinoPiPtyLTkeN-69">
          <mxGeometry x="1" width="20" height="20" relative="1" as="geometry">
            <mxPoint x="-24" y="4" as="offset" />
          </mxGeometry>
        </mxCell>
        <mxCell id="oefuFwdinoPiPtyLTkeN-72" value="" style="group" vertex="1" connectable="0" parent="oefuFwdinoPiPtyLTkeN-74">
          <mxGeometry x="260" width="220" height="360" as="geometry" />
        </mxCell>
        <mxCell id="oefuFwdinoPiPtyLTkeN-100" style="edgeStyle=orthogonalEdgeStyle;rounded=0;orthogonalLoop=1;jettySize=auto;html=1;endArrow=none;endFill=0;fillColor=#f8cecc;strokeColor=#b85450;" edge="1" parent="oefuFwdinoPiPtyLTkeN-72" source="oefuFwdinoPiPtyLTkeN-46">
          <mxGeometry relative="1" as="geometry">
            <mxPoint x="110" y="410" as="targetPoint" />
          </mxGeometry>
        </mxCell>
        <mxCell id="oefuFwdinoPiPtyLTkeN-46" value="Polonez" style="verticalAlign=top;align=left;spacingTop=8;spacingLeft=2;spacingRight=12;shape=cube;size=10;direction=south;fontStyle=4;html=1;whiteSpace=wrap;" vertex="1" parent="oefuFwdinoPiPtyLTkeN-72">
          <mxGeometry width="220" height="360" as="geometry" />
        </mxCell>
        <mxCell id="oefuFwdinoPiPtyLTkeN-47" value="&lt;p style=&quot;margin:0px;margin-top:6px;text-align:center;&quot;&gt;&lt;b&gt;TransformComponent&lt;/b&gt;&lt;/p&gt;&lt;hr&gt;&lt;p style=&quot;margin:0px;margin-left:8px;&quot;&gt;+ pos: Vec3&lt;br&gt;&lt;/p&gt;" style="align=left;overflow=fill;html=1;dropTarget=0;whiteSpace=wrap;" vertex="1" parent="oefuFwdinoPiPtyLTkeN-72">
          <mxGeometry x="10" y="40" width="190" height="60" as="geometry" />
        </mxCell>
        <mxCell id="oefuFwdinoPiPtyLTkeN-48" value="" style="shape=component;jettyWidth=8;jettyHeight=4;" vertex="1" parent="oefuFwdinoPiPtyLTkeN-47">
          <mxGeometry x="1" width="20" height="20" relative="1" as="geometry">
            <mxPoint x="-24" y="4" as="offset" />
          </mxGeometry>
        </mxCell>
        <mxCell id="oefuFwdinoPiPtyLTkeN-49" value="&lt;p style=&quot;margin:0px;margin-top:6px;text-align:center;&quot;&gt;&lt;b&gt;RendererComponent&lt;/b&gt;&lt;/p&gt;&lt;p style=&quot;margin:0px;margin-top:6px;text-align:center;&quot;&gt;&lt;b&gt;&amp;lt;PipelineType::NormalLighting&amp;gt;&lt;/b&gt;&lt;/p&gt;&lt;hr&gt;&lt;p style=&quot;margin:0px;margin-left:8px;&quot;&gt;+ pipeline: PipelineType&lt;br&gt;&lt;/p&gt;" style="align=left;overflow=fill;html=1;dropTarget=0;whiteSpace=wrap;" vertex="1" parent="oefuFwdinoPiPtyLTkeN-72">
          <mxGeometry x="10" y="110" width="190" height="80" as="geometry" />
        </mxCell>
        <mxCell id="oefuFwdinoPiPtyLTkeN-50" value="" style="shape=component;jettyWidth=8;jettyHeight=4;" vertex="1" parent="oefuFwdinoPiPtyLTkeN-49">
          <mxGeometry x="1" width="20" height="20" relative="1" as="geometry">
            <mxPoint x="-24" y="4" as="offset" />
          </mxGeometry>
        </mxCell>
        <mxCell id="oefuFwdinoPiPtyLTkeN-53" value="&lt;p style=&quot;margin:0px;margin-top:6px;text-align:center;&quot;&gt;&lt;b&gt;MeshComponent&lt;/b&gt;&lt;/p&gt;&lt;hr&gt;&lt;p style=&quot;margin:0px;margin-left:8px;&quot;&gt;+ firstIndex: size_t&lt;br&gt;&lt;/p&gt;&lt;p style=&quot;margin:0px;margin-left:8px;&quot;&gt;+ indexCount: size_t&lt;/p&gt;" style="align=left;overflow=fill;html=1;dropTarget=0;whiteSpace=wrap;" vertex="1" parent="oefuFwdinoPiPtyLTkeN-72">
          <mxGeometry x="10" y="200" width="190" height="70" as="geometry" />
        </mxCell>
        <mxCell id="oefuFwdinoPiPtyLTkeN-54" value="" style="shape=component;jettyWidth=8;jettyHeight=4;" vertex="1" parent="oefuFwdinoPiPtyLTkeN-53">
          <mxGeometry x="1" width="20" height="20" relative="1" as="geometry">
            <mxPoint x="-24" y="4" as="offset" />
          </mxGeometry>
        </mxCell>
        <mxCell id="oefuFwdinoPiPtyLTkeN-60" value="&lt;p style=&quot;margin:0px;margin-top:6px;text-align:center;&quot;&gt;&lt;b&gt;EchoComponent&lt;/b&gt;&lt;/p&gt;&lt;hr&gt;&lt;p style=&quot;margin:0px;margin-left:8px;&quot;&gt;+ message: std::string&lt;br&gt;&lt;/p&gt;&lt;p style=&quot;margin:0px;margin-left:8px;&quot;&gt;+ messageId: size_t&lt;/p&gt;" style="align=left;overflow=fill;html=1;dropTarget=0;whiteSpace=wrap;" vertex="1" parent="oefuFwdinoPiPtyLTkeN-72">
          <mxGeometry x="10" y="280" width="190" height="70" as="geometry" />
        </mxCell>
        <mxCell id="oefuFwdinoPiPtyLTkeN-61" value="" style="shape=component;jettyWidth=8;jettyHeight=4;" vertex="1" parent="oefuFwdinoPiPtyLTkeN-60">
          <mxGeometry x="1" width="20" height="20" relative="1" as="geometry">
            <mxPoint x="-24" y="4" as="offset" />
          </mxGeometry>
        </mxCell>
        <mxCell id="oefuFwdinoPiPtyLTkeN-93" value="" style="group" vertex="1" connectable="0" parent="oefuFwdinoPiPtyLTkeN-74">
          <mxGeometry x="-5" y="460" width="220" height="316" as="geometry" />
        </mxCell>
        <mxCell id="oefuFwdinoPiPtyLTkeN-117" style="edgeStyle=orthogonalEdgeStyle;rounded=0;orthogonalLoop=1;jettySize=auto;html=1;entryX=0.5;entryY=0;entryDx=0;entryDy=0;endArrow=open;endFill=0;" edge="1" parent="oefuFwdinoPiPtyLTkeN-93" source="oefuFwdinoPiPtyLTkeN-71" target="oefuFwdinoPiPtyLTkeN-111">
          <mxGeometry relative="1" as="geometry" />
        </mxCell>
        <mxCell id="oefuFwdinoPiPtyLTkeN-71" value="MovementSystem" style="verticalAlign=top;align=left;spacingTop=8;spacingLeft=2;spacingRight=12;shape=cube;size=10;direction=south;fontStyle=4;html=1;whiteSpace=wrap;" vertex="1" parent="oefuFwdinoPiPtyLTkeN-93">
          <mxGeometry width="220" height="180" as="geometry" />
        </mxCell>
        <mxCell id="oefuFwdinoPiPtyLTkeN-78" value="Filter" style="swimlane;fontStyle=0;childLayout=stackLayout;horizontal=1;startSize=26;fillColor=none;horizontalStack=0;resizeParent=1;resizeParentMax=0;resizeLast=0;collapsible=1;marginBottom=0;whiteSpace=wrap;html=1;" vertex="1" parent="oefuFwdinoPiPtyLTkeN-93">
          <mxGeometry x="40" y="50" width="140" height="86" as="geometry" />
        </mxCell>
        <mxCell id="oefuFwdinoPiPtyLTkeN-79" value="TransformComponent" style="text;strokeColor=none;fillColor=none;align=left;verticalAlign=top;spacingLeft=4;spacingRight=4;overflow=hidden;rotatable=0;points=[[0,0.5],[1,0.5]];portConstraint=eastwest;whiteSpace=wrap;html=1;" vertex="1" parent="oefuFwdinoPiPtyLTkeN-78">
          <mxGeometry y="26" width="140" height="26" as="geometry" />
        </mxCell>
        <mxCell id="oefuFwdinoPiPtyLTkeN-82" value="" style="line;strokeWidth=1;fillColor=none;align=left;verticalAlign=middle;spacingTop=-1;spacingLeft=3;spacingRight=3;rotatable=0;labelPosition=right;points=[];portConstraint=eastwest;strokeColor=inherit;" vertex="1" parent="oefuFwdinoPiPtyLTkeN-78">
          <mxGeometry y="52" width="140" height="8" as="geometry" />
        </mxCell>
        <mxCell id="oefuFwdinoPiPtyLTkeN-80" value="RigidBodyComponent" style="text;strokeColor=none;fillColor=none;align=left;verticalAlign=top;spacingLeft=4;spacingRight=4;overflow=hidden;rotatable=0;points=[[0,0.5],[1,0.5]];portConstraint=eastwest;whiteSpace=wrap;html=1;" vertex="1" parent="oefuFwdinoPiPtyLTkeN-78">
          <mxGeometry y="60" width="140" height="26" as="geometry" />
        </mxCell>
        <mxCell id="oefuFwdinoPiPtyLTkeN-111" value="Movement&lt;br&gt;Gameplay" style="ellipse;whiteSpace=wrap;html=1;" vertex="1" parent="oefuFwdinoPiPtyLTkeN-93">
          <mxGeometry x="40" y="246" width="140" height="70" as="geometry" />
        </mxCell>
        <mxCell id="oefuFwdinoPiPtyLTkeN-92" style="edgeStyle=orthogonalEdgeStyle;rounded=0;orthogonalLoop=1;jettySize=auto;html=1;entryX=0;entryY=0;entryDx=0;entryDy=105;entryPerimeter=0;endArrow=none;endFill=0;fillColor=#f8cecc;strokeColor=#b85450;" edge="1" parent="oefuFwdinoPiPtyLTkeN-74" source="oefuFwdinoPiPtyLTkeN-40" target="oefuFwdinoPiPtyLTkeN-71">
          <mxGeometry relative="1" as="geometry" />
        </mxCell>
        <mxCell id="oefuFwdinoPiPtyLTkeN-118" style="edgeStyle=orthogonalEdgeStyle;rounded=0;orthogonalLoop=1;jettySize=auto;html=1;entryX=0.5;entryY=0;entryDx=0;entryDy=0;endArrow=open;endFill=0;" edge="1" parent="oefuFwdinoPiPtyLTkeN-74" source="oefuFwdinoPiPtyLTkeN-75" target="oefuFwdinoPiPtyLTkeN-115">
          <mxGeometry relative="1" as="geometry" />
        </mxCell>
        <mxCell id="oefuFwdinoPiPtyLTkeN-75" value="RenderSystem" style="verticalAlign=top;align=left;spacingTop=8;spacingLeft=2;spacingRight=12;shape=cube;size=10;direction=south;fontStyle=4;html=1;whiteSpace=wrap;" vertex="1" parent="oefuFwdinoPiPtyLTkeN-74">
          <mxGeometry x="260" y="460" width="220" height="180" as="geometry" />
        </mxCell>
        <mxCell id="oefuFwdinoPiPtyLTkeN-119" style="edgeStyle=orthogonalEdgeStyle;rounded=0;orthogonalLoop=1;jettySize=auto;html=1;entryX=0.5;entryY=0;entryDx=0;entryDy=0;endArrow=open;endFill=0;" edge="1" parent="oefuFwdinoPiPtyLTkeN-74" source="oefuFwdinoPiPtyLTkeN-76" target="oefuFwdinoPiPtyLTkeN-116">
          <mxGeometry relative="1" as="geometry" />
        </mxCell>
        <mxCell id="oefuFwdinoPiPtyLTkeN-76" value="ExampleSystem" style="verticalAlign=top;align=left;spacingTop=8;spacingLeft=2;spacingRight=12;shape=cube;size=10;direction=south;fontStyle=4;html=1;whiteSpace=wrap;" vertex="1" parent="oefuFwdinoPiPtyLTkeN-74">
          <mxGeometry x="530" y="460" width="220" height="180" as="geometry" />
        </mxCell>
        <mxCell id="oefuFwdinoPiPtyLTkeN-94" style="edgeStyle=orthogonalEdgeStyle;rounded=0;orthogonalLoop=1;jettySize=auto;html=1;entryX=0;entryY=0;entryDx=0;entryDy=105;entryPerimeter=0;fillColor=#f8cecc;strokeColor=#b85450;endArrow=none;endFill=0;" edge="1" parent="oefuFwdinoPiPtyLTkeN-74" source="oefuFwdinoPiPtyLTkeN-40" target="oefuFwdinoPiPtyLTkeN-76">
          <mxGeometry relative="1" as="geometry">
            <Array as="points">
              <mxPoint x="110" y="410" />
              <mxPoint x="640" y="410" />
              <mxPoint x="640" y="460" />
            </Array>
          </mxGeometry>
        </mxCell>
        <mxCell id="oefuFwdinoPiPtyLTkeN-109" style="edgeStyle=orthogonalEdgeStyle;rounded=0;orthogonalLoop=1;jettySize=auto;html=1;entryX=0.012;entryY=0.773;entryDx=0;entryDy=0;entryPerimeter=0;fillColor=#dae8fc;strokeColor=#6c8ebf;endArrow=none;endFill=0;" edge="1" parent="oefuFwdinoPiPtyLTkeN-74" source="oefuFwdinoPiPtyLTkeN-46" target="oefuFwdinoPiPtyLTkeN-75">
          <mxGeometry relative="1" as="geometry">
            <Array as="points">
              <mxPoint x="310" y="390" />
              <mxPoint x="310" y="390" />
            </Array>
          </mxGeometry>
        </mxCell>
        <mxCell id="oefuFwdinoPiPtyLTkeN-84" value="Filter" style="swimlane;fontStyle=0;childLayout=stackLayout;horizontal=1;startSize=26;fillColor=none;horizontalStack=0;resizeParent=1;resizeParentMax=0;resizeLast=0;collapsible=1;marginBottom=0;whiteSpace=wrap;html=1;" vertex="1" parent="oefuFwdinoPiPtyLTkeN-74">
          <mxGeometry x="300" y="510" width="140" height="52" as="geometry" />
        </mxCell>
        <mxCell id="oefuFwdinoPiPtyLTkeN-85" value="&lt;span style=&quot;border-color: var(--border-color); text-align: center;&quot;&gt;RendererComponent&lt;/span&gt;" style="text;strokeColor=none;fillColor=none;align=left;verticalAlign=top;spacingLeft=4;spacingRight=4;overflow=hidden;rotatable=0;points=[[0,0.5],[1,0.5]];portConstraint=eastwest;whiteSpace=wrap;html=1;" vertex="1" parent="oefuFwdinoPiPtyLTkeN-84">
          <mxGeometry y="26" width="140" height="26" as="geometry" />
        </mxCell>
        <mxCell id="oefuFwdinoPiPtyLTkeN-88" value="Filter" style="swimlane;fontStyle=0;childLayout=stackLayout;horizontal=1;startSize=26;fillColor=none;horizontalStack=0;resizeParent=1;resizeParentMax=0;resizeLast=0;collapsible=1;marginBottom=0;whiteSpace=wrap;html=1;" vertex="1" parent="oefuFwdinoPiPtyLTkeN-74">
          <mxGeometry x="570" y="510" width="140" height="52" as="geometry" />
        </mxCell>
        <mxCell id="oefuFwdinoPiPtyLTkeN-89" value="TransformComponent" style="text;strokeColor=none;fillColor=none;align=left;verticalAlign=top;spacingLeft=4;spacingRight=4;overflow=hidden;rotatable=0;points=[[0,0.5],[1,0.5]];portConstraint=eastwest;whiteSpace=wrap;html=1;" vertex="1" parent="oefuFwdinoPiPtyLTkeN-88">
          <mxGeometry y="26" width="140" height="26" as="geometry" />
        </mxCell>
        <mxCell id="oefuFwdinoPiPtyLTkeN-115" value="Rendering" style="ellipse;whiteSpace=wrap;html=1;" vertex="1" parent="oefuFwdinoPiPtyLTkeN-74">
          <mxGeometry x="300" y="706" width="140" height="70" as="geometry" />
        </mxCell>
        <mxCell id="oefuFwdinoPiPtyLTkeN-116" value="Example&lt;br&gt;Job" style="ellipse;whiteSpace=wrap;html=1;" vertex="1" parent="oefuFwdinoPiPtyLTkeN-74">
          <mxGeometry x="570" y="706" width="140" height="70" as="geometry" />
        </mxCell>
      </root>
    </mxGraphModel>
  </diagram>
</mxfile>
